<svg id="Layer_1" data-name="Layer 1" xmlns="http://www.w3.org/2000/svg" viewBox="0 0 1888 252"><defs><style>.cls-1{fill:#adff2f;}</style></defs><rect width="1888" height="252"/><path class="cls-1" d="M1888,23.76l-865.27,0c-31.06,0-59.24,0-90.3-.09-2-.19-4,1.3-5.43,4.06C888,99.6,847.53,171.49,808.55,243.24c-1.56,3.17-3.8,4.9-6.11,4.74-265.67-.12-532.7-.25-798.38-.2-1.35,0-2.71.14-4.06.21v-7c1.09.08,2.17.22,3.26.22q398.17,0,796.34.08c2.14.19,4.21-1.38,5.67-4.28q56.51-104.25,113.12-208.3c.68-1.26,1.33-2.59,2.54-4.93h-4.26q-319,0-637.94.1c-2.82,0-4.94-1.1-6.82-5.14-2.23-4.77-4.82-9-7.55-14a12.59,12.59,0,0,1,2-.52c.91-.07,1.81,0,2.72,0h752.86l866.07,0Z"/></svg>