<svg id="Layer_1" data-name="Layer 1" xmlns="http://www.w3.org/2000/svg" viewBox="0 0 1888 252"><defs><style>.cls-1{fill:#adff2f;}</style></defs><path d="M1888,0V23.38l-865.27,0c-31.06,0-59.24,0-90.3-.09a4.19,4.19,0,0,0-2.78.79h0l-124,221a5.72,5.72,0,0,1-5,2.93H0V0Z"/><path class="cls-1" d="M1889,4.17V23.76l-865.73,0c-31.07,0-59.27,0-90.35-.09a4.14,4.14,0,0,0-2.78.8h0a8.8,8.8,0,0,0-2.64,3.26C888.51,99.6,848,171.49,809,243.24c-1.56,3.17-3.8,4.9-6.11,4.74-265.82-.12-533-.25-798.81-.2-1.35,0-2.71.14-4.06.21v-7c1.09.08,2.17.22,3.26.22q398.39,0,796.76.08c2.14.19,4.22-1.38,5.68-4.28q56.53-104.25,113.18-208.3c.68-1.26,1.33-2.59,2.54-4.93h-4.26q-319.17,0-638.28.1c-2.82,0-4.95-1.1-6.83-5.14-2.23-4.77-4.82-9-7.55-14a12.59,12.59,0,0,1,2-.52c.91-.07,1.81,0,2.72,0h753.26Z"/></svg>