<svg xmlns="http://www.w3.org/2000/svg" viewBox="0 0 1888 252"><defs><style>.cls-1{fill:#adff2f;}</style></defs><g id="Layer_2" data-name="Layer 2"><g id="Layer_1-2" data-name="Layer 1"><path d="M0,238V0H4.94Q944.22,0,1883.5,0a21.92,21.92,0,0,1,4.5,1c-2.5.07-5,.21-7.49.21H495.11c-1.66,0-3.33-.05-5,0-1,0-2,.27-3.66.52,5,5,9.78,9.21,13.89,14,3.47,4,7.36,5.14,12.56,5.14q586.95-.16,1173.92-.1h7.84c-2.23,2.34-3.43,3.67-4.69,4.93Q1585.86,129.84,1481.81,234a13.34,13.34,0,0,1-10.43,4.29Q738.68,238.18,6,238.21C4,238.21,2,238.07,0,238Z"/><path d="M1888,21V252H0v-7c2.49-.07,5-.21,7.48-.21q733.34,0,1466.66.1a14.43,14.43,0,0,0,11.24-4.74Q1592.9,132.4,1700.52,24.76a12.77,12.77,0,0,1,10-4.06q85.73.16,171.46.09C1884,20.79,1886,20.93,1888,21Z"/><path class="cls-1" d="M1888,21c-2-.07-4-.21-6-.21q-85.74,0-171.46-.09a12.77,12.77,0,0,0-10,4.06Q1593,132.52,1485.38,240.15a14.43,14.43,0,0,1-11.24,4.74q-733.32-.18-1466.66-.1c-2.49,0-5,.14-7.48.21v-7c2,.07,4,.21,6,.21q732.71,0,1465.4.09a13.34,13.34,0,0,0,10.43-4.29q104-104.25,208.16-208.3c1.26-1.26,2.46-2.59,4.69-4.93h-7.84q-587,0-1173.92.1c-5.2,0-9.09-1.1-12.56-5.14-4.11-4.77-8.87-9-13.89-14,1.67-.25,2.66-.48,3.66-.52,1.67-.07,3.34,0,5,0h1385.4c2.5,0,5-.14,7.49-.21Z"/></g></g></svg>